<svg width="76" height="76" viewBox="0 0 76 76" fill="none" xmlns="http://www.w3.org/2000/svg">
<path d="M55.2143 35.3214H42.6786V22.7857C42.6786 21.2475 41.4311 20 39.8929 20H37.1071C35.5689 20 34.3214 21.2475 34.3214 22.7857V35.3214H21.7857C20.2475 35.3214 19 36.5689 19 38.1071V40.8929C19 42.4311 20.2475 43.6786 21.7857 43.6786H34.3214V56.2143C34.3214 57.7525 35.5689 59 37.1071 59H39.8929C41.4311 59 42.6786 57.7525 42.6786 56.2143V43.6786H55.2143C56.7525 43.6786 58 42.4311 58 40.8929V38.1071C58 36.5689 56.7525 35.3214 55.2143 35.3214Z" fill="#D9D9D9"/>
<rect x="2.33333" y="2.33333" width="71.3333" height="71.3333" rx="11" stroke="#D9D9D9" stroke-width="4.66667"/>
</svg>
