<svg width="76" height="76" viewBox="0 0 76 76" fill="none" xmlns="http://www.w3.org/2000/svg">
<path d="M46.7175 21.9291C45.6182 22.7894 45.0924 22.885 40.8387 22.5982C36.7761 22.3114 36.0592 22.407 35.2467 23.1239C33.8606 24.3666 34.0518 25.1791 35.868 25.5137C40.6953 26.4218 56.5632 28.9549 56.6588 28.8115C57.0412 28.5248 52.8352 21.9291 51.9749 21.4511C50.5411 20.6864 48.0079 20.9254 46.7175 21.9291Z" fill="#D9D9D9"/>
<path d="M14.2646 24.7011C13.4521 26.2306 14.5036 27.1387 17.5147 27.4732L20.2868 27.76L23.9192 34.0689C26.5957 38.5617 28.0296 41.6683 29.0811 45.1096C30.3715 49.4111 31.662 51.5619 32.8569 51.5619C33.0481 51.5619 35.0555 50.0802 37.254 48.2162C39.4048 46.4 41.46 44.8706 41.6989 44.8706C41.9857 44.8706 43.8019 46.2567 45.7615 47.9773C49.4417 51.2751 51.1146 51.8009 51.4013 49.8413C51.4969 49.1243 50.6844 48.0251 48.3902 45.9221L45.2358 43.0066L52.166 37.8447C55.9896 35.0248 59.0963 32.4439 59.1441 32.1093C59.1441 31.8226 58.9051 31.3924 58.6184 31.249C58.1882 30.9623 30.6583 26.2784 29.3201 26.2306C29.0811 26.2306 29.0333 28.5247 29.2245 31.5836C29.4634 35.4072 29.3679 36.7933 29.0333 36.2675C28.7465 35.8851 27.1215 33.1608 25.4487 30.2453L22.342 24.9401L18.9963 24.3666C14.7904 23.6974 14.7904 23.6974 14.2646 24.7011ZM35.868 39.8999C38.1621 40.6168 40.0261 41.3816 39.9783 41.525C39.9305 41.9551 33.9084 46.7824 33.4304 46.7824C33.1914 46.7824 32.5223 45.1096 31.901 43.0544C31.2796 41.047 30.7061 39.0874 30.5627 38.705C30.3715 38.2271 30.5149 38.0837 30.9929 38.2749C31.3752 38.4183 33.526 39.1352 35.868 39.8999Z" fill="#D9D9D9"/>
<path d="M48.6293 43.2935C48.6293 43.4369 49.7285 44.7273 51.019 46.1134C53.6955 48.9333 53.9345 50.1281 52.2139 51.801C50.5889 53.4738 49.5374 53.2826 46.4785 50.7973C44.9968 49.6024 43.6586 48.7421 43.5152 48.8855C43.0851 49.3156 43.802 52.2311 44.7579 53.7606C46.5263 56.676 51.1624 57.6797 54.2213 55.8157C58.4272 53.187 58.4272 46.4479 54.2213 43.9148C52.7874 43.0067 48.6293 42.5765 48.6293 43.2935Z" fill="#D9D9D9"/>
<rect x="2.33333" y="2.33333" width="71.3333" height="71.3333" rx="11" stroke="#D9D9D9" stroke-width="4.66667"/>
<path d="M27.5 55L18.5 46.5V52.5C22.6437 52.4023 25 54.5 27.5 55Z" fill="#D9D9D9" stroke="#D9D9D9"/>
</svg>
