<svg width="76" height="76" viewBox="0 0 76 76" fill="none" xmlns="http://www.w3.org/2000/svg">
<rect x="2.33333" y="2.33333" width="71.3333" height="71.3333" rx="11" stroke="#EDEDED" stroke-width="4.66667"/>
<mask id="mask0_111_123" style="mask-type:alpha" maskUnits="userSpaceOnUse" x="14" y="16" width="49" height="44">
<path d="M62.7786 55.4278V35.7978C62.7786 34.3687 62.1104 33.0217 60.9724 32.1571L41.1553 17.1014C39.5204 15.8594 37.2582 15.8594 35.6234 17.1014L15.8062 32.1571C14.6683 33.0217 14 34.3687 14 35.7978V55.4278C14 57.953 16.047 60 18.5722 60H58.2064C60.7316 60 62.7786 57.953 62.7786 55.4278Z" fill="black"/>
</mask>
<g mask="url(#mask0_111_123)">
<rect x="55.4807" y="19.6277" width="7.29759" height="8.29787" fill="#EDEDED"/>
<rect x="14" y="15" width="41.481" height="12.9255" fill="#EDEDED"/>
<rect x="56.9387" y="41.1069" width="5.83969" height="8.9313" fill="#EDEDED"/>
<rect x="14" y="41.1069" width="40.5343" height="8.9313" fill="#EDEDED"/>
<rect x="14" y="30.2863" width="9.44656" height="8.41603" fill="#EDEDED"/>
<rect x="26.1946" y="30.2863" width="36.584" height="8.41603" fill="#EDEDED"/>
<rect x="43.0266" y="51.9275" width="19.7519" height="8.07252" fill="#EDEDED"/>
<rect x="14" y="51.7557" width="26.7939" height="8.24427" fill="#EDEDED"/>
</g>
<path d="M47.3287 32.3262H41.7939L44.337 38.2603L46.0295 42.2475L49.3204 50.0004L51.2245 54.486L53.5854 60H59.1201L47.3287 32.3262Z" fill="url(#paint0_linear_111_123)"/>
<path d="M34.5747 32.3262H29.1602L40.8313 60H46.3661L43.9811 54.3582L42.077 49.8726L38.7861 42.1197L37.0936 38.1325L34.5747 32.3262Z" fill="url(#paint1_linear_111_123)"/>
<path d="M37.0936 38.1325L44.337 38.2603L46.0295 42.2475L38.7861 42.1197L37.0936 38.1325Z" fill="url(#paint2_linear_111_123)"/>
<path d="M42.077 49.8726L49.3204 50.0004L51.2245 54.486L43.9811 54.3582L42.077 49.8726Z" fill="url(#paint3_linear_111_123)"/>
<path d="M29.1603 32.3262H34.6951L32.152 38.2603L30.4595 42.2475L27.1686 50.0004L25.2645 54.486L22.9037 60H17.3689L29.1603 32.3262Z" fill="#252525"/>
<path d="M41.9143 32.3262H47.3288L35.6577 60H30.1229L32.5079 54.3582L34.412 49.8726L37.7029 42.1197L39.3954 38.1325L41.9143 32.3262Z" fill="#252525"/>
<path d="M39.3954 38.1325L32.152 38.2603L30.4595 42.2475L37.7029 42.1197L39.3954 38.1325Z" fill="#252525"/>
<path d="M34.412 49.8726L27.1686 50.0004L25.2645 54.486L32.5079 54.3582L34.412 49.8726Z" fill="#252525"/>
<defs>
<linearGradient id="paint0_linear_111_123" x1="44.1402" y1="32.3262" x2="56.4731" y2="58.9772" gradientUnits="userSpaceOnUse">
<stop stop-color="#323232"/>
<stop offset="1" stop-color="#808080"/>
</linearGradient>
<linearGradient id="paint1_linear_111_123" x1="44.1402" y1="32.3262" x2="56.4731" y2="58.9772" gradientUnits="userSpaceOnUse">
<stop stop-color="#323232"/>
<stop offset="1" stop-color="#808080"/>
</linearGradient>
<linearGradient id="paint2_linear_111_123" x1="44.1402" y1="32.3262" x2="56.4731" y2="58.9772" gradientUnits="userSpaceOnUse">
<stop stop-color="#323232"/>
<stop offset="1" stop-color="#808080"/>
</linearGradient>
<linearGradient id="paint3_linear_111_123" x1="44.1402" y1="32.3262" x2="56.4731" y2="58.9772" gradientUnits="userSpaceOnUse">
<stop stop-color="#323232"/>
<stop offset="1" stop-color="#808080"/>
</linearGradient>
</defs>
</svg>
