<svg width="284" height="375" viewBox="0 0 284 375" fill="none" xmlns="http://www.w3.org/2000/svg">
<mask id="mask0_112_176" style="mask-type:alpha" maskUnits="userSpaceOnUse" x="0" y="6" width="284" height="256">
<path d="M284 235.38V121.09C284 112.769 280.109 104.926 273.484 99.8927L158.104 12.2347C148.586 5.00337 135.414 5.00337 125.896 12.2347L10.5164 99.8927C3.89075 104.926 0 112.769 0 121.089V235.38C0 250.082 11.9183 262 26.6203 262H257.38C272.082 262 284 250.082 284 235.38Z" fill="black"/>
</mask>
<g mask="url(#mask0_112_176)">
<rect x="241.512" y="26.9434" width="42.4882" height="48.3121" fill="black"/>
<rect width="241.512" height="75.2553" fill="black"/>
<rect x="250" y="152" width="34" height="52" fill="black"/>
<rect y="152" width="236" height="52" fill="black"/>
<rect y="89" width="55" height="49" fill="black"/>
<rect x="71" y="89" width="213" height="49" fill="black"/>
<rect x="169" y="215" width="115" height="47" fill="black"/>
<rect y="214" width="156" height="48" fill="black"/>
</g>
<path d="M194.048 100.877H161.824L176.63 135.427L186.484 158.641L205.645 203.78L216.73 229.896L230.476 262H262.701L194.048 100.877Z" fill="url(#paint0_linear_112_176)"/>
<path d="M119.792 100.877H88.2675L156.219 262H188.444L174.558 229.152L163.472 203.036L144.312 157.897L134.458 134.683L119.792 100.877Z" fill="url(#paint1_linear_112_176)"/>
<path d="M134.458 134.683L176.63 135.427L186.484 158.641L144.312 157.897L134.458 134.683Z" fill="url(#paint2_linear_112_176)"/>
<path d="M163.472 203.036L205.645 203.78L216.73 229.896L174.558 229.152L163.472 203.036Z" fill="url(#paint3_linear_112_176)"/>
<path d="M88.2674 100.877H120.492L105.685 135.427L95.8314 158.641L76.6709 203.78L65.5852 229.896L51.8396 262H19.615L88.2674 100.877Z" fill="white"/>
<path d="M162.524 100.877H194.048L126.096 262H93.8717L107.758 229.152L118.844 203.036L138.004 157.897L147.858 134.683L162.524 100.877Z" fill="white"/>
<path d="M147.858 134.683L105.685 135.427L95.8314 158.641L138.004 157.897L147.858 134.683Z" fill="white"/>
<path d="M118.844 203.036L76.6709 203.78L65.5852 229.896L107.758 229.152L118.844 203.036Z" fill="white"/>
<path d="M7.51335 355.05C8.9467 354.207 10.5276 353.68 12.2561 353.469C14.0267 353.259 15.8605 353.153 17.7576 353.153H21.1092C23.3014 353.153 24.3975 352.205 24.3975 350.308C24.3975 349.422 24.0813 348.748 23.4489 348.284C22.8587 347.82 22.0788 347.588 21.1092 347.588H7.51335V355.05ZM7.51335 367.255H21.1092C21.7837 367.255 22.4161 367.213 23.0063 367.128C23.6386 367.002 24.1867 366.812 24.6504 366.559C25.1141 366.264 25.4936 365.885 25.7887 365.421C26.0838 364.915 26.2313 364.262 26.2313 363.461C26.2313 362.238 25.8308 361.332 25.0298 360.742C24.2288 360.109 22.9219 359.793 21.1092 359.793H17.7576C16.24 359.793 14.9752 359.835 13.9635 359.919C12.9938 359.962 12.1507 360.046 11.434 360.172C10.7173 360.299 10.0639 360.489 9.47367 360.742C8.88347 360.994 8.23002 361.311 7.51335 361.69V367.255ZM32.7447 363.587C32.7447 366.875 31.7118 369.405 29.6461 371.176C27.6225 372.946 24.7769 373.831 21.1092 373.831H1V341.075H21.1092C22.4582 341.075 23.7229 341.307 24.9033 341.771C26.1259 342.192 27.1799 342.825 28.0652 343.668C28.9926 344.469 29.7093 345.438 30.2152 346.577C30.7633 347.673 31.0373 348.916 31.0373 350.308C31.0373 351.404 30.8686 352.436 30.5314 353.406C30.2363 354.376 29.6882 355.219 28.8872 355.936C30.1098 356.652 31.0584 357.706 31.7329 359.097C32.4074 360.489 32.7447 361.985 32.7447 363.587Z" fill="black"/>
<path d="M59.3415 374.843C57.065 374.843 54.9571 374.569 53.0178 374.021C51.1208 373.473 49.4555 372.651 48.0222 371.555C46.631 370.417 45.5349 368.983 44.7339 367.255C43.975 365.484 43.5956 363.397 43.5956 360.994V341.075H50.109V360.994C50.109 362.386 50.3198 363.545 50.7413 364.472C51.2051 365.4 51.8374 366.159 52.6384 366.749C53.4816 367.297 54.4723 367.698 55.6105 367.95C56.7488 368.161 58.0135 368.267 59.4047 368.267C60.7959 368.267 62.0606 368.161 63.1989 367.95C64.3372 367.698 65.3068 367.297 66.1078 366.749C66.9509 366.159 67.5833 365.4 68.0049 364.472C68.4686 363.545 68.7005 362.386 68.7005 360.994V341.075H75.2138V360.994C75.2138 363.397 74.8133 365.484 74.0123 367.255C73.2535 368.983 72.1574 370.417 70.724 371.555C69.3328 372.651 67.6676 373.473 65.7283 374.021C63.8313 374.569 61.7445 374.843 59.468 374.843H59.3415Z" fill="black"/>
<path d="M89.1851 373.831V341.075H95.6352V373.831H89.1851Z" fill="black"/>
<path d="M110.799 373.831V341.075H117.565V367.255H134.955V373.831H110.799Z" fill="black"/>
<path d="M152.957 347.588V367.255H159.47C162.632 367.255 165.077 366.391 166.806 364.662C168.534 362.934 169.398 360.489 169.398 357.327C169.398 354.123 168.534 351.699 166.806 350.055C165.077 348.41 162.632 347.588 159.47 347.588H152.957ZM139.171 341.075H159.47C161.915 341.075 164.15 341.433 166.173 342.15C168.239 342.825 169.989 343.857 171.422 345.249C172.898 346.598 174.036 348.284 174.837 350.308C175.638 352.289 176.038 354.587 176.038 357.2C176.038 359.73 175.638 362.027 174.837 364.093C174.078 366.159 172.961 367.908 171.485 369.342C170.052 370.775 168.302 371.892 166.237 372.693C164.213 373.452 161.958 373.831 159.47 373.831H146.127V347.588H142.08L139.171 341.075Z" fill="black"/>
<path d="M188.054 373.831V341.075H194.504V373.831H188.054Z" fill="black"/>
<path d="M213.715 341.075L233.508 363.84V341.075H240.021V373.831H233.508L215.296 352.521V373.831H208.782V345.944L205.557 341.075H213.715Z" fill="black"/>
<path d="M283.602 370.164C281.789 371.724 279.723 372.904 277.405 373.705C275.086 374.464 272.662 374.843 270.133 374.843C267.645 374.843 265.242 374.464 262.924 373.705C260.605 372.904 258.539 371.766 256.726 370.29C254.956 368.773 253.522 366.939 252.426 364.789C251.372 362.596 250.845 360.109 250.845 357.327C250.845 354.544 251.393 352.078 252.49 349.928C253.586 347.778 255.04 345.965 256.853 344.49C258.666 343.014 260.731 341.897 263.05 341.138C265.369 340.379 267.751 340 270.196 340C272.599 340 274.938 340.358 277.215 341.075C279.491 341.75 281.536 342.761 283.349 344.11L278.986 349.169C277.763 348.326 276.372 347.694 274.812 347.272C273.294 346.808 271.756 346.577 270.196 346.577C268.594 346.577 267.055 346.808 265.579 347.272C264.104 347.694 262.776 348.347 261.596 349.233C260.415 350.118 259.467 351.256 258.75 352.647C258.075 353.996 257.738 355.598 257.738 357.453C257.738 359.308 258.096 360.91 258.813 362.259C259.53 363.608 260.478 364.725 261.659 365.611C262.839 366.496 264.167 367.171 265.643 367.634C267.16 368.056 268.699 368.267 270.259 368.267C272.704 368.267 275.002 367.698 277.152 366.559V361.311H273.8L271.018 355.177H283.602V370.164Z" fill="black"/>
<path d="M37.472 289.63C35.592 288.063 33.3987 286.967 30.892 286.34C28.448 285.713 25.816 285.4 22.996 285.4C21.8053 285.4 20.6147 285.557 19.424 285.87C18.296 286.121 17.262 286.497 16.322 286.998C15.382 287.437 14.5987 288.001 13.972 288.69C13.408 289.317 13.126 289.975 13.126 290.664C13.126 291.416 13.22 292.105 13.408 292.732C13.6587 293.296 14.1287 293.797 14.818 294.236C15.57 294.612 16.6353 294.925 18.014 295.176C19.4553 295.427 21.3667 295.552 23.748 295.552C28.8867 295.552 33.0227 295.959 36.156 296.774C39.352 297.589 41.796 298.685 43.488 300.064C45.18 301.443 46.308 303.041 46.872 304.858C47.436 306.675 47.718 308.555 47.718 310.498C47.718 313.443 47.0913 316.013 45.838 318.206C44.5847 320.337 42.83 322.123 40.574 323.564C38.3807 324.943 35.78 325.977 32.772 326.666C29.764 327.418 26.5367 327.794 23.09 327.794C18.766 327.794 14.6613 326.885 10.776 325.068C6.95333 323.188 3.69467 320.65 1 317.454L7.956 310.404C8.708 311.156 9.49133 312.002 10.306 312.942C11.1833 313.882 12.186 314.759 13.314 315.574C14.5047 316.389 15.8833 317.078 17.45 317.642C19.0167 318.143 20.8967 318.394 23.09 318.394C27.602 318.394 31.2367 317.736 33.994 316.42C36.7513 315.104 38.13 313.13 38.13 310.498C38.13 308.305 36.8767 306.863 34.37 306.174C31.926 305.485 28.166 305.14 23.09 305.14C20.1447 305.14 17.45 304.889 15.006 304.388C12.562 303.887 10.4313 303.072 8.614 301.944C6.85933 300.753 5.48067 299.249 4.478 297.432C3.47533 295.552 2.974 293.296 2.974 290.664C2.974 288.471 3.50667 286.465 4.572 284.648C5.7 282.831 7.17267 281.295 8.99 280.042C10.8073 278.726 12.938 277.723 15.382 277.034C17.826 276.345 20.3953 276 23.09 276C26.662 276 30.14 276.407 33.524 277.222C36.908 278.037 40.386 279.666 43.958 282.11L37.472 289.63Z" fill="black"/>
<path d="M91.2297 310.122L81.7357 292.074L70.1737 314.352C71.7404 313.537 74.1531 312.629 77.4117 311.626C80.6704 310.623 84.8377 310.122 89.9137 310.122H91.2297ZM73.5577 276.47H83.9917L110.312 326.29H99.6897L95.8357 318.958H90.0077C86.9997 318.958 84.0231 319.209 81.0777 319.71C78.1324 320.211 75.4377 320.838 72.9937 321.59C70.6124 322.279 68.5757 323.031 66.8837 323.846C65.2544 324.598 64.2517 325.225 63.8757 325.726L63.5937 326.29H53.4417L76.7537 282.58L73.5577 276.47Z" fill="black"/>
<path d="M179.665 285.4V326.29H169.043V297.808L151.841 320.744L134.639 297.808V326.29H124.017V285.4L119.223 277.598H131.067L151.841 305.14L172.615 277.598H184.459L179.665 285.4Z" fill="black"/>
<path d="M200.882 326.29V277.598H210.47V326.29H200.882Z" fill="black"/>
<path d="M271.551 311.532C272.115 312.535 272.742 313.318 273.431 313.882C274.12 314.446 274.841 314.885 275.593 315.198C276.345 315.449 277.066 315.637 277.755 315.762C278.507 315.825 279.165 315.856 279.729 315.856H283.113V326.29H278.883C277.63 326.29 276.376 326.227 275.123 326.102C273.932 325.977 272.742 325.663 271.551 325.162C270.36 324.661 269.201 323.909 268.073 322.906C266.945 321.841 265.817 320.399 264.689 318.582L257.169 306.362H256.511C254.631 306.362 253.033 306.425 251.717 306.55C250.464 306.613 249.336 306.769 248.333 307.02C247.393 307.271 246.484 307.584 245.607 307.96C244.792 308.273 243.884 308.681 242.881 309.182V326.29H233.011V277.598H264.407C266.663 277.598 268.7 277.974 270.517 278.726C272.397 279.415 274.026 280.418 275.405 281.734C276.784 283.05 277.849 284.617 278.601 286.434C279.353 288.189 279.729 290.131 279.729 292.262C279.729 296.022 278.758 299.061 276.815 301.38C274.872 303.699 272.115 305.391 268.543 306.456L271.551 311.532ZM264.407 296.68C265.848 296.68 267.102 296.304 268.167 295.552C269.295 294.737 269.859 293.547 269.859 291.98C269.859 290.915 269.64 290.069 269.201 289.442C268.762 288.815 268.198 288.345 267.509 288.032C266.882 287.719 266.13 287.531 265.253 287.468C264.376 287.343 263.53 287.28 262.715 287.28H242.881V299.5C244.761 298.435 246.829 297.714 249.085 297.338C251.404 296.899 253.879 296.68 256.511 296.68H264.407Z" fill="black"/>
<defs>
<linearGradient id="paint0_linear_112_176" x1="175.484" y1="100.877" x2="247.289" y2="256.045" gradientUnits="userSpaceOnUse">
<stop stop-color="#323232"/>
<stop offset="1" stop-color="#808080"/>
</linearGradient>
<linearGradient id="paint1_linear_112_176" x1="175.484" y1="100.877" x2="247.289" y2="256.045" gradientUnits="userSpaceOnUse">
<stop stop-color="#323232"/>
<stop offset="1" stop-color="#808080"/>
</linearGradient>
<linearGradient id="paint2_linear_112_176" x1="175.484" y1="100.877" x2="247.289" y2="256.045" gradientUnits="userSpaceOnUse">
<stop stop-color="#323232"/>
<stop offset="1" stop-color="#808080"/>
</linearGradient>
<linearGradient id="paint3_linear_112_176" x1="175.484" y1="100.877" x2="247.289" y2="256.045" gradientUnits="userSpaceOnUse">
<stop stop-color="#323232"/>
<stop offset="1" stop-color="#808080"/>
</linearGradient>
</defs>
</svg>
