<svg width="76" height="76" viewBox="0 0 76 76" fill="none" xmlns="http://www.w3.org/2000/svg">
<rect x="2.33333" y="2.33333" width="71.3333" height="71.3333" rx="11" stroke="#DEDEDE" stroke-width="4.66667"/>
<path d="M38.5 39.9375C44.5557 39.9375 49.4687 35.0244 49.4687 28.9687C49.4687 22.9131 44.5557 18 38.5 18C32.4443 18 27.5312 22.9131 27.5312 28.9687C27.5312 35.0244 32.4443 39.9375 38.5 39.9375ZM48.25 42.375H44.0529C42.3619 43.152 40.4805 43.5937 38.5 43.5937C36.5195 43.5937 34.6457 43.152 32.9471 42.375H28.75C23.3646 42.375 19 46.7396 19 52.125V53.3437C19 55.3623 20.6377 57 22.6562 57H54.3437C56.3623 57 58 55.3623 58 53.3437V52.125C58 46.7396 53.6353 42.375 48.25 42.375Z" fill="#DEDEDE"/>
</svg>
